<svg width="106" height="76" viewBox="0 0 106 76" fill="none" xmlns="http://www.w3.org/2000/svg">
<path d="M52.4466 73.0505C32.7915 73.0505 18.2201 55.2438 18.2201 35.5887H88.4611C88.4611 55.2438 72.1017 73.0505 52.4466 73.0505Z" fill="white"/>
<path d="M53.4683 1.70288C33.8132 1.70288 18.3904 17.1257 18.3904 36.7808L89.2273 36.0145C89.2273 16.3594 73.1234 1.70288 53.4683 1.70288Z" fill="#78A7E2"/>
<circle cx="53.5534" cy="38.0579" r="15.0699" fill="white"/>
<path d="M19.1566 36.0996C25.2516 36.0996 34.2069 36.0996 36.9639 36.0996C37.4508 36.0996 37.8649 35.7552 37.9834 35.2829C38.7298 32.3075 42.0575 22.2217 52.8723 22.2217C63.7195 22.2217 67.5949 31.8702 68.4904 34.6671C68.6316 35.1079 69.035 35.4185 69.4978 35.4185H103.24C104.175 35.4185 104.599 34.2496 103.881 33.6506L91.6112 23.4136" stroke="#212A4A" stroke-width="3" stroke-linecap="round"/>
<path d="M86.8434 40.5269C80.7484 40.5269 71.7931 40.5269 69.0361 40.5269C68.5492 40.5269 68.1351 40.8713 68.0166 41.3436C67.2702 44.319 63.9425 54.4048 53.1277 54.4048C42.2805 54.4048 38.4051 44.7563 37.5096 41.9594C37.3684 41.5186 36.965 41.208 36.5022 41.208H2.75955C1.82454 41.208 1.40098 42.3769 2.11892 42.9758L14.3888 53.2128" stroke="#212A4A" stroke-width="3" stroke-linecap="round"/>
<path d="M88.9301 37.9727C88.9301 57.8399 72.8246 73.9454 52.9574 73.9454C33.0903 73.9454 16.9847 57.8399 16.9847 37.9727C16.9847 18.1055 33.0903 2 52.9574 2C72.8246 2 88.9301 18.1055 88.9301 37.9727Z" stroke="#212A4A" stroke-width="4"/>
</svg>
